<?xml version="1.0" encoding="utf-8"?>
<!-- Generator: Adobe Illustrator 28.0.0, SVG Export Plug-In . SVG Version: 6.00 Build 0)  -->
<svg version="1.1" id="Слой_1" xmlns="http://www.w3.org/2000/svg" xmlns:xlink="http://www.w3.org/1999/xlink" x="0px" y="0px"
	 viewBox="0 0 527 160" style="enable-background:new 0 0 527 160;" xml:space="preserve">
<style type="text/css">
	.st0{fill:#242424;}
	.st1{fill:#F97316;}
	.st2{enable-background:new    ;}
	.st3{fill:#FB923C;}
</style>
<g transform="translate(16 22)">
	<path class="st0" d="M0,106l33.5-85.5c1.9-4.8,6.5-8,11.6-8h15.1c5.2,0,9.8,3.3,11.6,8.2L104,106H79.3L53.1,36.8L25.4,106H0z"/>
	<path class="st1" d="M35.2,112h28.6l19.7-47.5H54.9L35.2,112z"/>
</g>
<g class="st2">
	<path class="st0" d="M214.6,107h-11.9l-4.8-12.4h-21.7l-4.5,12.4H160l21.2-54.4h11.6L214.6,107z M194.4,85.5l-7.5-20.2l-7.3,20.2
		H194.4z"/>
	<path class="st0" d="M242.3,107v-5.9c-1.4,2.1-3.3,3.8-5.7,5s-4.8,1.8-7.4,1.8c-2.6,0-5-0.6-7.1-1.7c-2.1-1.2-3.6-2.8-4.6-4.9
		c-0.9-2.1-1.4-5-1.4-8.7V67.6h10.4v18.1c0,5.5,0.2,8.9,0.6,10.2c0.4,1.2,1.1,2.2,2.1,3c1,0.7,2.3,1.1,3.9,1.1
		c1.8,0,3.4-0.5,4.8-1.5c1.4-1,2.4-2.2,2.9-3.6s0.8-5,0.8-10.6V67.6H252V107H242.3z"/>
	<path class="st0" d="M295,107h-9.7v-5.8c-1.6,2.3-3.5,3.9-5.7,5s-4.4,1.7-6.6,1.7c-4.5,0-8.4-1.8-11.6-5.5
		c-3.2-3.6-4.8-8.7-4.8-15.3c0-6.7,1.6-11.8,4.7-15.2c3.1-3.5,7.1-5.2,11.9-5.2c4.4,0,8.2,1.8,11.4,5.5V52.6H295V107z M267.2,86.4
		c0,4.2,0.6,7.2,1.7,9.1c1.7,2.7,4,4.1,7.1,4.1c2.4,0,4.4-1,6.1-3.1c1.7-2,2.5-5.1,2.5-9.1c0-4.5-0.8-7.8-2.4-9.8
		c-1.6-2-3.7-3-6.3-3c-2.5,0-4.5,1-6.2,3S267.2,82.5,267.2,86.4z"/>
	<path class="st0" d="M301.3,62.2v-9.6h10.4v9.6H301.3z M301.3,107V67.6h10.4V107H301.3z"/>
	<path class="st0" d="M336.6,67.6v8.3h-7.1v15.9c0,3.2,0.1,5.1,0.2,5.6c0.1,0.5,0.4,1,0.9,1.3c0.5,0.3,1.1,0.5,1.8,0.5
		c1,0,2.4-0.3,4.2-1l0.9,8.1c-2.4,1-5.2,1.6-8.2,1.6c-1.9,0-3.6-0.3-5.1-0.9c-1.5-0.6-2.6-1.4-3.3-2.4s-1.2-2.4-1.5-4.1
		c-0.2-1.2-0.3-3.7-0.3-7.3V75.9h-4.8v-8.3h4.8v-7.8l10.5-6.1v13.9H336.6z"/>
</g>
<g class="st2">
	<path class="st3" d="M422.9,106.8L407,67.3h10.9l7.4,20.1l2.2,6.7c0.6-1.7,0.9-2.8,1.1-3.4c0.3-1.1,0.7-2.2,1.1-3.3l7.5-20.1h10.7
		l-15.7,39.4H422.9z"/>
	<path class="st3" d="M468.4,67.3v8.3h-7.1v15.9c0,3.2,0.1,5.1,0.2,5.6c0.1,0.5,0.4,1,0.9,1.3c0.5,0.3,1.1,0.5,1.8,0.5
		c1,0,2.4-0.3,4.2-1l0.9,8.1c-2.4,1-5.2,1.6-8.2,1.6c-1.9,0-3.6-0.3-5.1-0.9c-1.5-0.6-2.6-1.4-3.3-2.4s-1.2-2.4-1.5-4.1
		c-0.2-1.2-0.3-3.7-0.3-7.3V75.7h-4.8v-8.3h4.8v-7.8l10.5-6.1v13.9H468.4z"/>
	<path class="st3" d="M469.3,86.5c0-3.5,0.9-6.8,2.6-10.1c1.7-3.2,4.1-5.7,7.3-7.4c3.1-1.7,6.6-2.6,10.5-2.6c6,0,10.8,1.9,14.7,5.8
		c3.8,3.9,5.7,8.8,5.7,14.7c0,6-1.9,10.9-5.8,14.8c-3.8,3.9-8.7,5.9-14.5,5.9c-3.6,0-7.1-0.8-10.3-2.4c-3.3-1.6-5.8-4-7.5-7.2
		S469.3,91,469.3,86.5z M480,87.1c0,3.9,0.9,6.9,2.8,9s4.1,3.1,6.9,3.1c2.7,0,5-1,6.8-3.1c1.8-2.1,2.8-5.1,2.8-9.1
		c0-3.9-0.9-6.8-2.8-8.9c-1.8-2.1-4.1-3.1-6.8-3.1c-2.7,0-5,1-6.9,3.1S480,83.1,480,87.1z"/>
</g>
<polygon class="st3" points="391.3,52.4 379.7,52.4 358.5,106.8 370.1,106.8 385.3,65 392.8,85.2 382,85.2 378.9,94.4 396.4,94.4 
	401.1,106.8 413.1,106.8 "/>
</svg>
